<?xml version="1.0" encoding="UTF-8" standalone="no"?>
<!DOCTYPE svg PUBLIC "-//W3C//DTD SVG 1.1//EN" "http://www.w3.org/Graphics/SVG/1.1/DTD/svg11.dtd">
<svg width="100%" height="100%" viewBox="0 0 1200 800" version="1.1" xmlns="http://www.w3.org/2000/svg" xmlns:xlink="http://www.w3.org/1999/xlink" xml:space="preserve" xmlns:serif="http://www.serif.com/" style="fill-rule:evenodd;clip-rule:evenodd;">
    <g id="layout-1">
        <rect x="50" y="50" width="500" height="700" style="fill:white;stroke:black;stroke-width:2px;"/>
        <g>
            <g transform="matrix(1.019819,0,0,1.019819,72.789065,82.129668)">
                <text x="0px" y="0px" style="font-family:'LucidaGrande-Bold', 'Lucida Grande', sans-serif;font-weight:600;font-size:24px;">BRIEFS</text>
            </g>
            <rect x="175" y="65" width="40" height="4"/>
            <rect x="175" y="72" width="50" height="4"/>
            <rect x="175" y="79" width="45" height="4"/>
            <g transform="matrix(1.125,0,0,1.888889,-9.375,-102.222222)">
                <rect x="75" y="115" width="80" height="45" style="fill:rgb(229,229,229);stroke:rgb(163,163,163);stroke-width:1px;"/>
            </g>
            <g transform="matrix(1,0,0,1,0,11)">
                <rect x="100" y="87" width="55" height="3"/>
            </g>
            <g transform="matrix(1,0,0,1,0,11)">
                <rect x="75" y="93" width="80" height="3"/>
            </g>
            <rect x="175" y="130" width="55" height="4"/>
            <rect x="175" y="137" width="50" height="4"/>
            <rect x="175" y="144" width="55" height="4"/>
            <g transform="matrix(1.3125,0,0,1,-54.6875,0)">
                <rect x="175" y="155" width="80" height="45" style="fill:rgb(229,229,229);stroke:rgb(163,163,163);stroke-width:1px;"/>
            </g>
            <g transform="matrix(1.3125,0,0,0.711111,-54.6875,-19.222222)">
                <rect x="175" y="155" width="80" height="45" style="fill:rgb(229,229,229);stroke:rgb(163,163,163);stroke-width:1px;"/>
            </g>
            <g transform="matrix(1.3125,0,0,0.711111,60.3125,-45.222222)">
                <rect x="175" y="155" width="80" height="45" style="fill:rgb(229,229,229);stroke:rgb(163,163,163);stroke-width:1px;"/>
            </g>
            <rect x="290" y="105" width="55" height="4"/>
            <rect x="290" y="112" width="50" height="4"/>
            <rect x="290" y="119" width="45" height="4"/>
            <g transform="matrix(1.3125,0,0,1.166667,-90.625,-21.666667)">
                <rect x="290" y="130" width="80" height="60" style="fill:rgb(229,229,229);stroke:rgb(163,163,163);stroke-width:1px;"/>
            </g>
            <rect x="405" y="65" width="45" height="4"/>
            <rect x="405" y="72" width="55" height="4"/>
            <rect x="405" y="79" width="50" height="4"/>
            <rect x="405" y="90" width="130" height="110" style="fill:rgb(229,229,229);stroke:rgb(163,163,163);stroke-width:1px;"/>
        </g>
        <path d="M75,215L535,215" style="fill:none;fill-rule:nonzero;stroke:black;stroke-width:2px;"/>
        <g>
            <g transform="matrix(1,0,0,1,75,240)">
                <text x="0px" y="0px" style="font-family:'Helvetica';font-size:21px;">Unvmmuy ummuv uy V<tspan x="216.275px 227.955px " y="0px 0px ">um</tspan>mmmu</text>
            </g>
            <g transform="matrix(1.888889,0,0,1.888889,-331,-166)">
                <rect x="405" y="225" width="45" height="5"/>
            </g>
            <g transform="matrix(1.888889,0,0,1.888889,-331,-166)">
                <rect x="405" y="233" width="40" height="5"/>
            </g>
            <g transform="matrix(1.888889,0,0,1.888889,-331,-166)">
                <rect x="405" y="241" width="45" height="5"/>
            </g>
            <g transform="matrix(1.888889,0,0,1.888889,-331,-166)">
                <rect x="405" y="249" width="42" height="5"/>
            </g>
            <g transform="matrix(0.981284,0,0,1,6.403715,0)">
                <rect x="75" y="260" width="80" height="210" style="fill:rgb(229,229,229);stroke:rgb(163,163,163);stroke-width:1px;"/>
            </g>
            <g transform="matrix(0.981284,0,0,1,-3.409123,0)">
                <rect x="175" y="260" width="80" height="210" style="fill:rgb(229,229,229);stroke:rgb(163,163,163);stroke-width:1px;"/>
            </g>
            <g transform="matrix(0.981284,0,0,1,-30.394427,0)">
                <rect x="290" y="260" width="80" height="210" style="fill:rgb(229,229,229);stroke:rgb(163,163,163);stroke-width:1px;"/>
            </g>
            <g transform="matrix(0.981284,0,0,1,56.924995,0)">
                <rect x="290" y="260" width="80" height="210" style="fill:rgb(229,229,229);stroke:rgb(163,163,163);stroke-width:1px;"/>
            </g>
        </g>
        <g>
            <g>
                <rect x="80" y="495" width="230" height="235" style="fill:none;stroke:black;stroke-width:2px;"/>
                <g transform="matrix(0.93,0,0,1.032258,6.65,-16.612903)">
                    <rect x="95" y="515" width="100" height="7"/>
                </g>
                <g transform="matrix(0.93,0,0,1.032258,6.65,-16.612903)">
                    <rect x="95" y="527" width="85" height="7"/>
                </g>
                <g transform="matrix(0.93,0,0,1.032258,6.65,-16.612903)">
                    <rect x="95" y="539" width="95" height="7"/>
                </g>
                <g transform="matrix(0.938095,0,0,1,5.880952,0)">
                    <rect x="95" y="560" width="100" height="150" style="fill:rgb(229,229,229);stroke:rgb(163,163,163);stroke-width:1px;"/>
                </g>
                <g transform="matrix(0.938095,0,0,1.313333,109.071429,-222.466667)">
                    <rect x="95" y="560" width="100" height="150" style="fill:rgb(229,229,229);stroke:rgb(163,163,163);stroke-width:1px;"/>
                </g>
            </g>
            <rect x="325" y="495" width="50" height="5"/>
            <rect x="325" y="503" width="55" height="5"/>
            <rect x="325" y="511" width="48" height="5"/>
            <rect x="325" y="530" width="95" height="200" style="fill:rgb(229,229,229);stroke:rgb(163,163,163);stroke-width:1px;"/>
            <g transform="matrix(1,0,0,1.73617,0,-537.404255)">
                <rect x="435" y="495" width="100" height="235" style="fill:rgb(229,229,229);stroke:rgb(163,163,163);stroke-width:1px;"/>
            </g>
        </g>
        <g>
            <rect x="55" y="85" width="70" height="30" style="fill:rgb(217,20,20);"/>
            <g transform="matrix(1,0,0,1,89.93,105)">
                <text x="-15.587px" y="0px" style="font-family:'Impact', sans-serif;font-stretch:condensed;font-size:14px;fill:white;">G<tspan x="-7.73px 0.06px 7.849px " y="0px 0px 0px ">OOD</tspan></text>
            </g>
        </g>
    </g>
    <g id="layout-2">
        <rect x="650" y="50" width="500" height="700" style="fill:white;stroke:black;stroke-width:2px;"/>
        <g>
            <g transform="matrix(1,0,0,1,665,80)">
                <text x="0px" y="0px" style="font-family:'Helvetica';font-size:21px;">Unvmmuy ummuv uy V<tspan x="216.275px 227.955px " y="0px 0px ">um</tspan>mmmu</text>
            </g>
            <rect x="1005" y="60" width="40" height="4"/>
            <rect x="1005" y="67" width="35" height="4"/>
            <rect x="1005" y="74" width="40" height="4"/>
            <rect x="1005" y="81" width="38" height="4"/>
        </g>
        <g>
            <g transform="matrix(0.795045,0,0,1,136.295045,0)">
                <rect x="665" y="100" width="100" height="190" style="fill:rgb(229,229,229);stroke:rgb(163,163,163);stroke-width:1px;"/>
            </g>
            <g transform="matrix(0.795045,0,0,1,136.295045,0)">
                <rect x="780" y="100" width="100" height="190" style="fill:rgb(229,229,229);stroke:rgb(163,163,163);stroke-width:1px;"/>
            </g>
            <g transform="matrix(0.795045,0,0,1,136.295045,0)">
                <rect x="895" y="100" width="100" height="190" style="fill:rgb(229,229,229);stroke:rgb(163,163,163);stroke-width:1px;"/>
            </g>
            <g transform="matrix(0.795045,0,0,1,226.93018,0)">
                <rect x="895" y="100" width="100" height="190" style="fill:rgb(229,229,229);stroke:rgb(163,163,163);stroke-width:1px;"/>
            </g>
            <g transform="matrix(0.784615,0,0,1,244.461538,0)">
                <rect x="1005" y="100" width="130" height="490" style="fill:rgb(229,229,229);stroke:rgb(163,163,163);stroke-width:1px;"/>
            </g>
        </g>
        <g>
            <rect x="665" y="310" width="50" height="5"/>
            <rect x="665" y="318" width="55" height="5"/>
            <rect x="665" y="326" width="48" height="5"/>
            <g transform="matrix(0.795045,0,0,1,136.295045,0)">
                <rect x="665" y="340" width="100" height="250" style="fill:rgb(229,229,229);stroke:rgb(163,163,163);stroke-width:1px;"/>
            </g>
            <g>
                <g transform="matrix(1.243902,0,0,1,-205.243902,0)">
                    <rect x="780" y="310" width="205" height="280" style="fill:none;stroke:black;stroke-width:2px;"/>
                </g>
                <g transform="matrix(1.243902,0,0,1,-205.243902,0)">
                    <rect x="795" y="330" width="150" height="6"/>
                </g>
                <g transform="matrix(1.243902,0,0,1,-205.243902,0)">
                    <rect x="795" y="340" width="165" height="6"/>
                </g>
                <g transform="matrix(1.243902,0,0,1,-205.243902,0)">
                    <rect x="795" y="360" width="80" height="210" style="fill:rgb(229,229,229);stroke:rgb(163,163,163);stroke-width:1px;"/>
                </g>
                <g transform="matrix(1.243902,0,0,1,-205.243902,0)">
                    <rect x="890" y="360" width="80" height="210" style="fill:rgb(229,229,229);stroke:rgb(163,163,163);stroke-width:1px;"/>
                </g>
            </g>
        </g>
        <g>
            <rect x="665" y="605" width="470" height="20"/>
            <g transform="matrix(1,0,0,1,899.89,619)">
                <text x="-19.236px" y="0px" style="font-family:'LucidaGrande-Bold', 'Lucida Grande', sans-serif;font-weight:600;font-size:11px;fill:white;">B<tspan x="-12.087px -4.278px -0.411px 6.415px 12.952px " y="0px 0px 0px 0px 0px ">RIEFS</tspan></text>
            </g>
            <g transform="matrix(1.078161,0,0,1,-51.977011,0)">
                <rect x="665" y="635" width="45" height="4"/>
            </g>
            <g transform="matrix(1.078161,0,0,1,-51.977011,0)">
                <rect x="665" y="645" width="60" height="45" style="fill:rgb(229,229,229);stroke:rgb(163,163,163);stroke-width:1px;"/>
            </g>
            <g transform="matrix(1.078161,0,0,0.644444,-51.977011,295.333333)">
                <rect x="665" y="645" width="60" height="45" style="fill:rgb(229,229,229);stroke:rgb(163,163,163);stroke-width:1px;"/>
            </g>
            <g transform="matrix(1.078161,0,0,1,-51.977011,0)">
                <rect x="740" y="655" width="45" height="4"/>
            </g>
            <g transform="matrix(1.078161,0,0,1.666667,-51.977011,-443.333333)">
                <rect x="740" y="665" width="60" height="45" style="fill:rgb(229,229,229);stroke:rgb(163,163,163);stroke-width:1px;"/>
            </g>
            <g transform="matrix(1.078161,0,0,0.311111,-51.977011,429.111111)">
                <rect x="740" y="665" width="60" height="45" style="fill:rgb(229,229,229);stroke:rgb(163,163,163);stroke-width:1px;"/>
            </g>
            <g transform="matrix(1.078161,0,0,1,-51.977011,0)">
                <rect x="815" y="635" width="45" height="4"/>
            </g>
            <g transform="matrix(1.078161,0,0,1,-51.977011,0)">
                <rect x="815" y="645" width="60" height="45" style="fill:rgb(229,229,229);stroke:rgb(163,163,163);stroke-width:1px;"/>
            </g>
            <g transform="matrix(1.078161,0,0,0.644444,-51.977011,295.333333)">
                <rect x="815" y="645" width="60" height="45" style="fill:rgb(229,229,229);stroke:rgb(163,163,163);stroke-width:1px;"/>
            </g>
            <g transform="matrix(1.078161,0,0,0.322222,28.885057,427.666667)">
                <rect x="815" y="645" width="60" height="45" style="fill:rgb(229,229,229);stroke:rgb(163,163,163);stroke-width:1px;"/>
            </g>
            <g transform="matrix(1.078161,0,0,1,-51.977011,0)">
                <rect x="890" y="655" width="45" height="4"/>
            </g>
            <g transform="matrix(1.078161,0,0,1.666667,-51.977011,-443.333333)">
                <rect x="890" y="665" width="60" height="45" style="fill:rgb(229,229,229);stroke:rgb(163,163,163);stroke-width:1px;"/>
            </g>
            <g transform="matrix(1.078161,0,0,1,-51.977011,0)">
                <rect x="965" y="635" width="45" height="4"/>
            </g>
            <g transform="matrix(1.078161,0,0,1,-51.977011,0)">
                <rect x="965" y="645" width="60" height="45" style="fill:rgb(229,229,229);stroke:rgb(163,163,163);stroke-width:1px;"/>
            </g>
            <g transform="matrix(1.078161,0,0,0.644444,-51.977011,295.333333)">
                <rect x="965" y="645" width="60" height="45" style="fill:rgb(229,229,229);stroke:rgb(163,163,163);stroke-width:1px;"/>
            </g>
            <g transform="matrix(1.078161,0,0,1,-51.977011,0)">
                <rect x="1040" y="655" width="45" height="4"/>
            </g>
            <g transform="matrix(1.078161,0,0,1.666667,-51.977011,-443.333333)">
                <rect x="1040" y="665" width="60" height="45" style="fill:rgb(229,229,229);stroke:rgb(163,163,163);stroke-width:1px;"/>
            </g>
            <g transform="matrix(1.078161,0,0,0.311111,-51.977011,429.111111)">
                <rect x="1040" y="665" width="60" height="45" style="fill:rgb(229,229,229);stroke:rgb(163,163,163);stroke-width:1px;"/>
            </g>
            <g transform="matrix(1.078161,0,0,1,-51.977011,0)">
                <rect x="665" y="700" width="45" height="4"/>
            </g>
            <g transform="matrix(1.078161,0,0,1,-51.977011,0)">
                <rect x="815" y="700" width="45" height="4"/>
            </g>
            <g transform="matrix(1.078161,0,0,1,-51.977011,0)">
                <rect x="965" y="700" width="45" height="4"/>
            </g>
        </g>
        <g>
            <rect x="655" y="85" width="70" height="30" style="fill:rgb(217,20,20);"/>
            <g transform="matrix(1,0,0,1,689.93,105)">
                <text x="-15.587px" y="0px" style="font-family:'Impact', sans-serif;font-stretch:condensed;font-size:14px;fill:white;">G<tspan x="-7.73px 0.06px 7.849px " y="0px 0px 0px ">OOD</tspan></text>
            </g>
        </g>
    </g>
</svg>
