<?xml version="1.0" encoding="UTF-8" standalone="no"?>
<!DOCTYPE svg PUBLIC "-//W3C//DTD SVG 1.1//EN" "http://www.w3.org/Graphics/SVG/1.1/DTD/svg11.dtd">
<svg width="100%" height="100%" viewBox="0 0 1200 900" version="1.1" xmlns="http://www.w3.org/2000/svg" xmlns:xlink="http://www.w3.org/1999/xlink" xml:space="preserve" xmlns:serif="http://www.serif.com/" style="fill-rule:evenodd;clip-rule:evenodd;">
    <rect x="0" y="0" width="1200" height="900" style="fill:white;"/>
    <g id="layout-4">
        <g transform="matrix(0.975556,0,0,1,1.222222,0)">
            <rect x="50" y="40" width="450" height="820" style="fill:rgb(246,246,246);stroke:rgb(160,160,160);stroke-width:1.5px;"/>
        </g>
        <g transform="matrix(1,0,0,0.260256,0,621.384615)">
            <rect x="70" y="60" width="66" height="780" style="fill:rgb(227,227,227);fill-opacity:0.9;"/>
            <rect x="152" y="60" width="66" height="780" style="fill:rgb(227,227,227);fill-opacity:0.9;"/>
            <rect x="234" y="60" width="66" height="780" style="fill:rgb(227,227,227);fill-opacity:0.9;"/>
            <rect x="316" y="60" width="66" height="780" style="fill:rgb(227,227,227);fill-opacity:0.9;"/>
            <rect x="398" y="60" width="66" height="780" style="fill:rgb(227,227,227);fill-opacity:0.9;"/>
        </g>
        <g transform="matrix(1,0,0,0.260256,0,346.884615)">
            <g transform="matrix(1,0,0,0.938424,0,51.724138)">
                <rect x="70" y="60" width="66" height="780" style="fill:rgb(227,227,227);fill-opacity:0.9;"/>
            </g>
            <g transform="matrix(1,0,0,1.216749,0,-182.068966)">
                <rect x="152" y="60" width="66" height="780" style="fill:rgb(227,227,227);fill-opacity:0.9;"/>
            </g>
            <g transform="matrix(1,0,0,1.017241,0,-14.482759)">
                <rect x="234" y="60" width="66" height="780" style="fill:rgb(227,227,227);fill-opacity:0.9;"/>
            </g>
            <g transform="matrix(1,0,0,1.017241,0,-14.482759)">
                <rect x="316" y="60" width="66" height="780" style="fill:rgb(227,227,227);fill-opacity:0.9;"/>
            </g>
            <g transform="matrix(1,0,0,1.017241,0,-14.482759)">
                <rect x="398" y="60" width="66" height="780" style="fill:rgb(227,227,227);fill-opacity:0.9;"/>
            </g>
        </g>
        <g transform="matrix(1,0,0,0.241026,0,91.4481)">
            <rect x="70" y="60" width="66" height="780" style="fill:rgb(227,227,227);fill-opacity:0.9;"/>
            <rect x="152" y="60" width="66" height="780" style="fill:rgb(227,227,227);fill-opacity:0.9;"/>
            <rect x="234" y="60" width="66" height="780" style="fill:rgb(227,227,227);fill-opacity:0.9;"/>
            <rect x="316" y="60" width="66" height="780" style="fill:rgb(227,227,227);fill-opacity:0.9;"/>
            <rect x="398" y="60" width="66" height="780" style="fill:rgb(227,227,227);fill-opacity:0.9;"/>
        </g>
        <g>
            <rect x="50" y="90" width="85" height="32" style="fill:rgb(211,47,47);"/>
            <g transform="matrix(1,0,0,1,62,112)">
                <g>
                    <text x="0px" y="0px" style="font-family:'Helvetica';font-size:15px;fill:white;">WE</text>
                    <g transform="matrix(1,0,0,1,24.313,0)">
                        <text x="0px" y="0px" style="font-family:'Helvetica';font-size:15px;fill:white;">AK</text>
                    </g>
                </g>
            </g>
        </g>
        <g transform="matrix(0.911029,0,0,0.911029,70.157828,83.649798)">
            <text x="0px" y="0px" style="font-family:'LucidaGrande-Bold', 'Lucida Grande', sans-serif;font-weight:600;font-size:21px;">UnMMMMuy UMMMN uy VUMMMMu yuv</text>
        </g>
        <g transform="matrix(0.872813,0,0,0.872813,8.93527,40.684984)">
            <g transform="matrix(1,0,0,1,70,330)">
                <text x="0px" y="0px" style="font-family:'LucidaGrande-Bold', 'Lucida Grande', sans-serif;font-weight:600;font-size:14px;fill:rgb(85,85,85);">UnMMMN</text>
            </g>
            <g transform="matrix(1,0,0,1,70,346)">
                <text x="0px" y="0px" style="font-family:'LucidaGrande-Bold', 'Lucida Grande', sans-serif;font-weight:600;font-size:14px;fill:rgb(85,85,85);">vUMMMv</text>
            </g>
            <g transform="matrix(1,0,0,1,70,362)">
                <text x="0px" y="0px" style="font-family:'LucidaGrande-Bold', 'Lucida Grande', sans-serif;font-weight:600;font-size:14px;fill:rgb(85,85,85);">uMMMMuy</text>
            </g>
        </g>
        <g transform="matrix(0.870313,0,0,0.870313,234.197191,338.855086)">
            <text x="0px" y="0px" style="font-family:'LucidaGrande-Bold', 'Lucida Grande', sans-serif;font-weight:600;font-size:18px;">UnMMMMuy UMMMN uy Vuv</text>
        </g>
        <g transform="matrix(0.807352,0,0,0.807352,70.292923,607.49407)">
            <text x="0px" y="0px" style="font-family:'LucidaGrande-Bold', 'Lucida Grande', sans-serif;font-weight:600;font-size:18px;">UnMMMMuy uMMMN uy VUMMMMu uMMuyUMMMuy</text>
        </g>
    </g>
    <g transform="matrix(0.703704,0,0,1.155464,-313.055556,-544.565729)">
        <g id="transition-arrow">
            <path d="M1176,845.562L1176,815.188L1319.25,815.188L1319.25,800L1419,830.375L1319.25,860.75L1319.25,845.562L1176,845.562Z" style="fill:rgb(0,152,110);"/>
        </g>
    </g>
    <g id="layout-5">
        <g transform="matrix(0.964444,0,0,1,24.888889,0)">
            <rect x="700" y="40" width="450" height="820" style="fill:rgb(246,246,246);stroke:rgb(160,160,160);stroke-width:1.5px;"/>
        </g>
        <g transform="matrix(1,0,0,0.264103,0,618.153846)">
            <rect x="720" y="60" width="66" height="780" style="fill:rgb(227,227,227);fill-opacity:0.9;"/>
            <rect x="802" y="60" width="66" height="780" style="fill:rgb(227,227,227);fill-opacity:0.9;"/>
            <rect x="884" y="60" width="66" height="780" style="fill:rgb(227,227,227);fill-opacity:0.9;"/>
            <rect x="966" y="60" width="66" height="780" style="fill:rgb(227,227,227);fill-opacity:0.9;"/>
            <rect x="1048" y="60" width="66" height="780" style="fill:rgb(227,227,227);fill-opacity:0.9;"/>
        </g>
        <g transform="matrix(1,0,0,0.228205,0,361.307692)">
            <rect x="720" y="60" width="66" height="780" style="fill:rgb(227,227,227);fill-opacity:0.9;"/>
            <g transform="matrix(1,0,0,1.275281,0,-231.235955)">
                <rect x="802" y="60" width="66" height="780" style="fill:rgb(227,227,227);fill-opacity:0.9;"/>
            </g>
            <g transform="matrix(1,0,0,1.089888,0,-75.505618)">
                <rect x="884" y="60" width="66" height="780" style="fill:rgb(227,227,227);fill-opacity:0.9;"/>
            </g>
            <g transform="matrix(1,0,0,1.089888,0,-75.505618)">
                <rect x="966" y="60" width="66" height="780" style="fill:rgb(227,227,227);fill-opacity:0.9;"/>
            </g>
            <g transform="matrix(1,0,0,1.089888,0,-75.505618)">
                <rect x="1048" y="60" width="66" height="780" style="fill:rgb(227,227,227);fill-opacity:0.9;"/>
            </g>
        </g>
        <g transform="matrix(0.949398,0,0,0.949398,45.927711,2.53012)">
            <rect x="710" y="50" width="415" height="260" style="fill:white;"/>
            <rect x="710" y="50" width="415" height="260" style="fill:none;stroke:rgb(26,26,26);stroke-width:2px;"/>
            <g transform="matrix(0.977299,0,0,0.977299,723.766344,89.655496)">
                <text x="0px" y="0px" style="font-family:'LucidaGrande-Bold', 'Lucida Grande', sans-serif;font-weight:600;font-size:21px;">UnMMMMuy uMMMN uy VUMMMuYu</text>
            </g>
            <g opacity="0.15">
                <g transform="matrix(1.230769,0,0,1,-172.961538,0)">
                    <rect x="730" y="110" width="66" height="180"/>
                </g>
                <g transform="matrix(1.230769,0,0,1,-172.961538,0)">
                    <rect x="812" y="110" width="66" height="180"/>
                </g>
                <g transform="matrix(1.230769,0,0,1,-172.961538,0)">
                    <rect x="894" y="110" width="66" height="180"/>
                </g>
                <g transform="matrix(1.230769,0,0,1,-172.961538,0)">
                    <rect x="976" y="110" width="66" height="180"/>
                </g>
            </g>
        </g>
        <g transform="matrix(0.863509,0,0,0.863509,98.308334,49.778442)">
            <g transform="matrix(1,0,0,1,720,330)">
                <text x="0px" y="0px" style="font-family:'LucidaGrande-Bold', 'Lucida Grande', sans-serif;font-weight:600;font-size:14px;fill:rgb(85,85,85);">UnMMMN</text>
            </g>
            <g transform="matrix(1,0,0,1,720,346)">
                <text x="0px" y="0px" style="font-family:'LucidaGrande-Bold', 'Lucida Grande', sans-serif;font-weight:600;font-size:14px;fill:rgb(85,85,85);">vUMMMv</text>
            </g>
            <g transform="matrix(1,0,0,1,720,362)">
                <text x="0px" y="0px" style="font-family:'LucidaGrande-Bold', 'Lucida Grande', sans-serif;font-weight:600;font-size:14px;fill:rgb(85,85,85);">uMMMMuy</text>
            </g>
        </g>
        <g>
            <rect x="700" y="90" width="85" height="32" style="fill:rgb(211,47,47);"/>
            <g transform="matrix(1,0,0,1,712,112)">
                <g>
                    <text x="0px" y="0px" style="font-family:'Helvetica';font-size:15px;fill:white;">GO</text>
                    <g transform="matrix(1,0,0,1,23.485,0)">
                        <text x="0px" y="0px" style="font-family:'Helvetica';font-size:15px;fill:white;">OD</text>
                    </g>
                </g>
            </g>
        </g>
        <g transform="matrix(0.835505,0,0,0.835505,884.250117,345.860274)">
            <text x="0px" y="0px" style="font-family:'LucidaGrande-Bold', 'Lucida Grande', sans-serif;font-weight:600;font-size:18px;">UnMMMMuy uMMMN uyUMuY</text>
        </g>
        <g transform="matrix(0.821114,0,0,0.821114,720.271998,607.67308)">
            <text x="0px" y="0px" style="font-family:'LucidaGrande-Bold', 'Lucida Grande', sans-serif;font-weight:600;font-size:18px;">UnMMMMuy uMMMN uy VUMMMI uMMuyUvUMMMN</text>
        </g>
    </g>
</svg>
