<?xml version="1.0" encoding="UTF-8" standalone="no"?>
<!DOCTYPE svg PUBLIC "-//W3C//DTD SVG 1.1//EN" "http://www.w3.org/Graphics/SVG/1.1/DTD/svg11.dtd">
<svg width="100%" height="100%" viewBox="0 0 1200 644" version="1.1" xmlns="http://www.w3.org/2000/svg" xmlns:xlink="http://www.w3.org/1999/xlink" xml:space="preserve" xmlns:serif="http://www.serif.com/" style="fill-rule:evenodd;clip-rule:evenodd;">
    <g id="layout-1">
        <rect x="0" y="0" width="1" height="1" style="fill:none;"/>
    </g>
    <g id="layout-2">
        <rect x="0" y="0" width="1" height="1" style="fill:none;"/>
    </g>
    <g id="layout-3">
        <rect x="0" y="0" width="1" height="1" style="fill:none;"/>
    </g>
    <g id="layout-4">
        <rect x="0" y="0" width="1" height="1" style="fill:none;"/>
    </g>
    <g id="layout-5">
        <rect x="0" y="0" width="1" height="1" style="fill:none;"/>
    </g>
    <g id="layout-6">
        <rect x="0" y="0" width="1" height="1" style="fill:none;"/>
    </g>
    <g id="layout-7">
        <rect x="0" y="0" width="1" height="1" style="fill:none;"/>
    </g>
    <g id="layout-8">
        <rect x="0" y="0" width="1" height="1" style="fill:none;"/>
    </g>
    <g id="layout-9">
        <rect x="50" y="100" width="500" height="480" style="fill:white;stroke:black;stroke-width:2px;"/>
        <g>
            <rect x="75" y="125" width="220" height="425" style="fill:white;stroke:black;stroke-width:2px;"/>
            <path d="M75,125L295,550" style="fill:none;fill-rule:nonzero;stroke:black;stroke-width:1.5px;"/>
            <path d="M295,125L75,550" style="fill:none;fill-rule:nonzero;stroke:black;stroke-width:1.5px;"/>
            <path d="M75,556L295,556" style="fill:none;fill-rule:nonzero;stroke:black;stroke-width:4px;"/>
        </g>
        <g>
            <rect x="50" y="195" width="65" height="25" style="fill:rgb(191,30,46);"/>
            <g transform="matrix(1,0,0,1,82.5,212)">
                <text x="-18.334px" y="0px" style="font-family:'Helvetica-Bold', 'Helvetica';font-weight:700;font-size:12px;fill:white;">GOOD</text>
            </g>
        </g>
        <g transform="matrix(1.081489,0,0,1,-25.778432,0)">
            <g transform="matrix(1,0,0,1,315,155)">
                <text x="0px" y="0px" style="font-family:'Helvetica-Bold', 'Helvetica';font-weight:700;font-size:22px;">UmMmMmuwuw</text>
            </g>
            <g transform="matrix(1,0,0,1,315,185)">
                <text x="0px" y="0px" style="font-family:'Helvetica-Bold', 'Helvetica';font-weight:700;font-size:22px;">uyVMMMuuy uMuv</text>
            </g>
        </g>
        <g>
            <rect x="315" y="215" width="100" height="335" style="fill:rgb(224,224,224);"/>
            <rect x="430" y="215" width="100" height="335" style="fill:rgb(224,224,224);"/>
        </g>
        <g transform="matrix(0.522388,0,0,0.22807,-1.328358,306.526316)">
            <path d="M513.657,116.899C513.657,116.899 528.413,211.95 544.286,233.874C557.292,251.838 608.893,244.053 608.893,244.053L608.893,190.615L640,261.865L608.893,333.115L608.893,279.678C608.893,279.678 554.261,283.277 540.444,264.192C524.571,242.269 513.657,116.899 513.657,116.899Z" style="fill:rgb(0,152,110);"/>
        </g>
    </g>
    <g id="layout-10">
        <rect x="650" y="100" width="500" height="480" style="fill:white;stroke:black;stroke-width:2px;"/>
        <g transform="matrix(1.088169,0,0,1.088169,-59.632187,-14.499471)">
            <g transform="matrix(1,0,0,1,675,155)">
                <text x="0px" y="0px" style="font-family:'Helvetica-Bold', 'Helvetica';font-weight:700;font-size:22px;">UmMmMmuwuw</text>
            </g>
            <g transform="matrix(1,0,0,1,675,185)">
                <text x="0px" y="0px" style="font-family:'Helvetica-Bold', 'Helvetica';font-weight:700;font-size:22px;">uyVMMMuuy uMuv</text>
            </g>
        </g>
        <g>
            <rect x="675" y="215" width="100" height="335" style="fill:rgb(224,224,224);"/>
            <rect x="790" y="215" width="100" height="335" style="fill:rgb(224,224,224);"/>
        </g>
        <g>
            <rect x="650" y="195" width="65" height="25" style="fill:rgb(191,30,46);"/>
            <g transform="matrix(1,0,0,1,682.5,212)">
                <text x="-18.334px" y="0px" style="font-family:'Helvetica-Bold', 'Helvetica';font-weight:700;font-size:12px;fill:white;">GOOD</text>
            </g>
        </g>
        <path d="M1030,360C1000,360 985,340 970,340L970,325L935,350L970,375L970,360C985,360 1000,380 1030,380L1030,360Z" style="fill:rgb(139,150,128);fill-rule:nonzero;stroke:rgb(93,102,85);stroke-width:1px;"/>
        <g>
            <rect x="915" y="125" width="220" height="425" style="fill:white;stroke:black;stroke-width:2px;"/>
            <path d="M915,125L1135,550" style="fill:none;fill-rule:nonzero;stroke:black;stroke-width:1.5px;"/>
            <path d="M1135,125L915,550" style="fill:none;fill-rule:nonzero;stroke:black;stroke-width:1.5px;"/>
            <path d="M915,556L1135,556" style="fill:none;fill-rule:nonzero;stroke:black;stroke-width:4px;"/>
        </g>
        <g transform="matrix(-0.522388,0,0,0.22807,1201.328358,313.338816)">
            <path d="M513.657,116.899C513.657,116.899 528.413,211.95 544.286,233.874C557.292,251.838 608.893,244.053 608.893,244.053L608.893,190.615L640,261.865L608.893,333.115L608.893,279.678C608.893,279.678 554.261,283.277 540.444,264.192C524.571,242.269 513.657,116.899 513.657,116.899Z" style="fill:rgb(0,152,110);"/>
        </g>
    </g>
</svg>
