<?xml version="1.0" encoding="UTF-8" standalone="no"?>
<!DOCTYPE svg PUBLIC "-//W3C//DTD SVG 1.1//EN" "http://www.w3.org/Graphics/SVG/1.1/DTD/svg11.dtd">
<svg width="100%" height="100%" viewBox="0 0 1200 605" version="1.1" xmlns="http://www.w3.org/2000/svg" xmlns:xlink="http://www.w3.org/1999/xlink" xml:space="preserve" xmlns:serif="http://www.serif.com/" style="fill-rule:evenodd;clip-rule:evenodd;stroke-linejoin:round;stroke-miterlimit:2;">
    <g id="layout-3" transform="matrix(1,0,0,1,50,480)">
        <g transform="matrix(1,0,0,1,0,-429)">
            <rect x="0" y="0" width="340" height="500" style="fill:white;stroke:black;stroke-width:1px;"/>
        </g>
        <g transform="matrix(1,0,0,1,0,-429)">
            <g transform="matrix(1,0,0,0.131915,0,421.021277)">
                <rect x="15" y="15" width="55" height="470" style="fill:rgb(230,230,230);fill-opacity:0.6;"/>
            </g>
            <g transform="matrix(1,0,0,0.131915,0,421.021277)">
                <rect x="78" y="15" width="55" height="470" style="fill:rgb(230,230,230);fill-opacity:0.6;"/>
            </g>
            <g transform="matrix(1,0,0,0.131915,0,421.021277)">
                <rect x="141" y="15" width="55" height="470" style="fill:rgb(230,230,230);fill-opacity:0.6;"/>
            </g>
            <g transform="matrix(1,0,0,0.131915,0,421.021277)">
                <rect x="204" y="15" width="55" height="470" style="fill:rgb(230,230,230);fill-opacity:0.6;"/>
            </g>
            <g transform="matrix(1,0,0,0.131915,0,318.021277)">
                <rect x="15" y="15" width="55" height="470" style="fill:rgb(230,230,230);fill-opacity:0.6;"/>
            </g>
            <g transform="matrix(1,0,0,0.131915,0,318.021277)">
                <rect x="78" y="15" width="55" height="470" style="fill:rgb(230,230,230);fill-opacity:0.6;"/>
            </g>
            <g transform="matrix(1,0,0,0.131915,0,318.021277)">
                <rect x="141" y="15" width="55" height="470" style="fill:rgb(230,230,230);fill-opacity:0.6;"/>
            </g>
            <g transform="matrix(1,0,0,0.131915,0,318.021277)">
                <rect x="204" y="15" width="55" height="470" style="fill:rgb(230,230,230);fill-opacity:0.6;"/>
            </g>
            <g transform="matrix(1,0,0,0.180851,0,190.287234)">
                <rect x="15" y="15" width="55" height="470" style="fill:rgb(230,230,230);fill-opacity:0.6;"/>
            </g>
            <g transform="matrix(1,0,0,0.180851,0,190.287234)">
                <rect x="78" y="15" width="55" height="470" style="fill:rgb(230,230,230);fill-opacity:0.6;"/>
            </g>
            <g transform="matrix(1,0,0,0.180851,0,190.287234)">
                <rect x="141" y="15" width="55" height="470" style="fill:rgb(230,230,230);fill-opacity:0.6;"/>
            </g>
            <g transform="matrix(1,0,0,0.180851,0,190.287234)">
                <rect x="204" y="15" width="55" height="470" style="fill:rgb(230,230,230);fill-opacity:0.6;"/>
            </g>
            <g transform="matrix(1,0,0,0.214894,0,52.776596)">
                <rect x="15" y="15" width="55" height="470" style="fill:rgb(230,230,230);fill-opacity:0.6;"/>
            </g>
            <g transform="matrix(1,0,0,0.214894,0,52.776596)">
                <rect x="78" y="15" width="55" height="470" style="fill:rgb(230,230,230);fill-opacity:0.6;"/>
            </g>
            <g transform="matrix(1,0,0,0.214894,0,52.776596)">
                <rect x="141" y="15" width="55" height="470" style="fill:rgb(230,230,230);fill-opacity:0.6;"/>
            </g>
            <g transform="matrix(1,0,0,0.214894,0,52.776596)">
                <rect x="204" y="15" width="55" height="470" style="fill:rgb(230,230,230);fill-opacity:0.6;"/>
            </g>
            <g transform="matrix(1,0,0,0.131915,0,421.021277)">
                <rect x="267" y="15" width="55" height="470" style="fill:rgb(230,230,230);fill-opacity:0.6;"/>
            </g>
            <g transform="matrix(0.781818,0,0,0.623404,66.254545,71.648936)">
                <rect x="267" y="15" width="55" height="470" style="fill:rgb(230,230,230);fill-opacity:0.6;"/>
            </g>
        </g>
        <g transform="matrix(0.933333,0,0,1.035294,21.6,-430.058824)">
            <rect x="264" y="30" width="60" height="340" style="fill:none;stroke:black;stroke-width:2px;stroke-linejoin:miter;stroke-miterlimit:4;"/>
        </g>
        <g transform="matrix(1,0,0,1,276.844727,-382)">
            <text x="0px" y="0px" style="font-family:'Helvetica-Bold', 'Helvetica';font-weight:700;font-size:10px;">Uммui</text>
        </g>
        <g transform="matrix(1,0,0,1,276.844727,-370)">
            <text x="0px" y="0px" style="font-family:'Helvetica-Bold', 'Helvetica';font-weight:700;font-size:10px;">vшмvuy</text>
        </g>
        <g transform="matrix(1,0,0,1,276.844727,-358)">
            <text x="0px" y="0px" style="font-family:'Helvetica-Bold', 'Helvetica';font-weight:700;font-size:10px;">uммui</text>
        </g>
        <g transform="matrix(1,0,0,1,15,-384)">
            <text x="0px" y="0px" style="font-family:'Helvetica-Bold', 'Helvetica';font-weight:700;font-size:16px;">Uммммuy uммuv yuv</text>
        </g>
        <g transform="matrix(1,0,0,1,15,-249)">
            <text x="0px" y="0px" style="font-family:'Helvetica-Bold', 'Helvetica';font-weight:700;font-size:15px;">Uмммv uммммuy</text>
        </g>
        <g transform="matrix(1,0,0,1,15,-129)">
            <text x="0px" y="0px" style="font-family:'Helvetica-Bold', 'Helvetica';font-weight:700;font-size:14px;">Uммммy uммv uмuy uиy</text>
        </g>
        <g transform="matrix(1,0,0,1,15,-19)">
            <text x="0px" y="0px" style="font-family:'Helvetica-Bold', 'Helvetica';font-weight:700;font-size:13px;">Uииииy uииv uииy vиииииvиии</text>
        </g>
        <g transform="matrix(1,0,0,1,-10,-379)">
            <rect x="0" y="0" width="75" height="35" style="fill:rgb(211,29,36);"/>
            <g transform="matrix(1,0,0,1,12,23)">
                <g>
                    <text x="0px" y="0px" style="font-family:'Helvetica-Bold', 'Helvetica';font-weight:700;font-size:14px;fill:white;">G</text>
                    <g transform="matrix(1,0,0,1,11.03,0)">
                        <text x="0px" y="0px" style="font-family:'Helvetica-Bold', 'Helvetica';font-weight:700;font-size:14px;fill:white;">O<tspan x="11.029px 22.059px " y="0px 0px ">OD</tspan></text>
                    </g>
                </g>
            </g>
        </g>
    </g>
    <g id="layout-4" transform="matrix(1,0,0,1,430,480)">
        <g transform="matrix(1,0,0,1,0,-429)">
            <rect x="0" y="0" width="340" height="500" style="fill:white;stroke:black;stroke-width:1px;"/>
        </g>
        <g transform="matrix(1,0,0,1,0,-429)">
            <g transform="matrix(1,0,0,0.134043,0,419.989362)">
                <rect x="15" y="15" width="55" height="470" style="fill:rgb(230,230,230);fill-opacity:0.6;"/>
            </g>
            <g transform="matrix(1,0,0,0.134043,0,419.989362)">
                <rect x="78" y="15" width="55" height="470" style="fill:rgb(230,230,230);fill-opacity:0.6;"/>
            </g>
            <g transform="matrix(1,0,0,0.134043,0,419.989362)">
                <rect x="141" y="15" width="55" height="470" style="fill:rgb(230,230,230);fill-opacity:0.6;"/>
            </g>
            <g transform="matrix(1,0,0,0.134043,0,419.989362)">
                <rect x="15" y="15" width="55" height="470" style="fill:rgb(230,230,230);fill-opacity:0.6;"/>
            </g>
            <g transform="matrix(1,0,0,0.134043,0,419.989362)">
                <rect x="78" y="15" width="55" height="470" style="fill:rgb(230,230,230);fill-opacity:0.6;"/>
            </g>
            <g transform="matrix(1.381356,0,0,0.389362,2.279661,181.159574)">
                <rect x="15" y="15" width="55" height="470" style="fill:rgb(230,230,230);fill-opacity:0.6;"/>
            </g>
            <g transform="matrix(1.381356,0,0,0.389362,2.279661,181.159574)">
                <rect x="78" y="15" width="55" height="470" style="fill:rgb(230,230,230);fill-opacity:0.6;"/>
            </g>
            <g transform="matrix(1,0,0,0.134043,0,419.989362)">
                <rect x="141" y="15" width="55" height="470" style="fill:rgb(230,230,230);fill-opacity:0.6;"/>
            </g>
            <g transform="matrix(1,0,0,0.134043,0,419.989362)">
                <rect x="204" y="15" width="55" height="470" style="fill:rgb(230,230,230);fill-opacity:0.6;"/>
            </g>
            <g transform="matrix(1,0,0,0.134043,0,419.989362)">
                <rect x="267" y="15" width="55" height="470" style="fill:rgb(230,230,230);fill-opacity:0.6;"/>
            </g>
            <g transform="matrix(1,0,0,0.159574,0,54.606383)">
                <rect x="15" y="15" width="55" height="470" style="fill:rgb(230,230,230);fill-opacity:0.6;"/>
            </g>
            <g transform="matrix(1,0,0,0.159574,0,54.606383)">
                <rect x="78" y="15" width="55" height="470" style="fill:rgb(230,230,230);fill-opacity:0.6;"/>
            </g>
            <g transform="matrix(1,0,0,0.159574,0,54.606383)">
                <rect x="141" y="15" width="55" height="470" style="fill:rgb(230,230,230);fill-opacity:0.6;"/>
            </g>
            <g transform="matrix(1,0,0,0.159574,0,54.606383)">
                <rect x="204" y="15" width="55" height="470" style="fill:rgb(230,230,230);fill-opacity:0.6;"/>
            </g>
            <g transform="matrix(1,0,0,0.159574,0,54.606383)">
                <rect x="267" y="15" width="55" height="470" style="fill:rgb(230,230,230);fill-opacity:0.6;"/>
            </g>
            <g transform="matrix(1,0,0,0.121277,0,311.180851)">
                <rect x="204" y="15" width="55" height="470" style="fill:rgb(230,230,230);fill-opacity:0.6;"/>
            </g>
            <g transform="matrix(1,0,0,0.121277,0,311.180851)">
                <rect x="267" y="15" width="55" height="470" style="fill:rgb(230,230,230);fill-opacity:0.6;"/>
            </g>
            <g transform="matrix(1,0,0,0.202128,0,176.968085)">
                <rect x="204" y="15" width="55" height="470" style="fill:rgb(230,230,230);fill-opacity:0.6;"/>
            </g>
            <g transform="matrix(1,0,0,0.202128,0,176.968085)">
                <rect x="267" y="15" width="55" height="470" style="fill:rgb(230,230,230);fill-opacity:0.6;"/>
            </g>
        </g>
        <g transform="matrix(1,0,0,1,15,-384)">
            <text x="0px" y="0px" style="font-family:'Helvetica-Bold', 'Helvetica';font-weight:700;font-size:18px;">Uммммy uммv yмммi</text>
        </g>
        <g transform="matrix(1,0,0,1,0,-429)">
            <rect x="15" y="150" width="181" height="230" style="fill:none;stroke:black;stroke-width:2px;stroke-linejoin:miter;stroke-miterlimit:4;"/>
            <g transform="matrix(1,0,0,1,25,175)">
                <text x="0px" y="0px" style="font-family:'Helvetica-Bold', 'Helvetica';font-weight:700;font-size:16px;">Uммv iммu</text>
            </g>
        </g>
        <g transform="matrix(1,0,0,1,204,-269)">
            <text x="0px" y="0px" style="font-family:'Helvetica-Bold', 'Helvetica';font-weight:700;font-size:11px;">Uммммy uмu</text>
        </g>
        <g transform="matrix(1,0,0,1,204,-257)">
            <text x="0px" y="0px" style="font-family:'Helvetica-Bold', 'Helvetica';font-weight:700;font-size:11px;">vшмvuy vшмv</text>
        </g>
        <g transform="matrix(1,0,0,1,204,-139)">
            <text x="0px" y="0px" style="font-family:'Helvetica-Bold', 'Helvetica';font-weight:700;font-size:11px;">Uмммммv</text>
        </g>
        <g transform="matrix(1,0,0,1,204,-127)">
            <text x="0px" y="0px" style="font-family:'Helvetica-Bold', 'Helvetica';font-weight:700;font-size:11px;">uмuy uммммy</text>
        </g>
        <g transform="matrix(1.584444,0,0,1.584444,14.421263,-20.636045)">
            <text x="0px" y="0px" style="font-family:'Helvetica-Bold', 'Helvetica';font-weight:700;font-size:13px;">Uииииy uииv uииy vиииии vии</text>
        </g>
        <g transform="matrix(1,0,0,1,-10,-379)">
            <rect x="0" y="0" width="75" height="35" style="fill:rgb(211,29,36);"/>
            <g transform="matrix(1,0,0,1,12,23)">
                <g>
                    <text x="0px" y="0px" style="font-family:'Helvetica-Bold', 'Helvetica';font-weight:700;font-size:14px;fill:white;">G</text>
                    <g transform="matrix(1,0,0,1,11.03,0)">
                        <text x="0px" y="0px" style="font-family:'Helvetica-Bold', 'Helvetica';font-weight:700;font-size:14px;fill:white;">O<tspan x="11.029px 22.059px " y="0px 0px ">OD</tspan></text>
                    </g>
                </g>
            </g>
        </g>
    </g>
    <g id="layout-5" transform="matrix(1,0,0,1,810,480)">
        <g transform="matrix(1,0,0,1,0,-429)">
            <rect x="0" y="0" width="340" height="500" style="fill:white;stroke:black;stroke-width:1px;"/>
        </g>
        <g transform="matrix(1,0,0,1,0,-429)">
            <g transform="matrix(1,0,0,0.131915,0,421.021277)">
                <rect x="15" y="15" width="55" height="470" style="fill:rgb(230,230,230);fill-opacity:0.6;"/>
            </g>
            <g transform="matrix(1,0,0,0.131915,0,421.021277)">
                <rect x="78" y="15" width="55" height="470" style="fill:rgb(230,230,230);fill-opacity:0.6;"/>
            </g>
            <g transform="matrix(1,0,0,0.131915,0,421.021277)">
                <rect x="141" y="15" width="55" height="470" style="fill:rgb(230,230,230);fill-opacity:0.6;"/>
            </g>
            <g transform="matrix(1,0,0,0.131915,0,421.021277)">
                <rect x="204" y="15" width="55" height="470" style="fill:rgb(230,230,230);fill-opacity:0.6;"/>
            </g>
            <g transform="matrix(0.927273,0,0,0.108511,80.211364,428.37234)">
                <rect x="204" y="15" width="55" height="470" style="fill:rgb(230,230,230);fill-opacity:0.6;"/>
            </g>
            <g transform="matrix(1,0,0,0.170213,0,307.446809)">
                <rect x="15" y="15" width="55" height="470" style="fill:rgb(230,230,230);fill-opacity:0.6;"/>
            </g>
            <g transform="matrix(1,0,0,0.170213,0,307.446809)">
                <rect x="78" y="15" width="55" height="470" style="fill:rgb(230,230,230);fill-opacity:0.6;"/>
            </g>
            <g transform="matrix(1,0,0,0.170213,0,307.446809)">
                <rect x="141" y="15" width="55" height="470" style="fill:rgb(230,230,230);fill-opacity:0.6;"/>
            </g>
            <g transform="matrix(1,0,0,0.170213,0,307.446809)">
                <rect x="204" y="15" width="55" height="470" style="fill:rgb(230,230,230);fill-opacity:0.6;"/>
            </g>
            <g transform="matrix(1,0,0,0.193617,0,185.095745)">
                <rect x="15" y="15" width="55" height="470" style="fill:rgb(230,230,230);fill-opacity:0.6;"/>
            </g>
            <g transform="matrix(1,0,0,0.193617,0,185.095745)">
                <rect x="78" y="15" width="55" height="470" style="fill:rgb(230,230,230);fill-opacity:0.6;"/>
            </g>
            <g transform="matrix(1,0,0,0.193617,0,185.095745)">
                <rect x="141" y="15" width="55" height="470" style="fill:rgb(230,230,230);fill-opacity:0.6;"/>
            </g>
            <g transform="matrix(1,0,0,0.193617,0,185.095745)">
                <rect x="204" y="15" width="55" height="470" style="fill:rgb(230,230,230);fill-opacity:0.6;"/>
            </g>
            <g transform="matrix(1,0,0,0.193617,63,185.095745)">
                <rect x="204" y="15" width="55" height="470" style="fill:rgb(230,230,230);fill-opacity:0.6;"/>
            </g>
            <g transform="matrix(1,0,0,0.22766,0,51.585106)">
                <rect x="15" y="15" width="55" height="470" style="fill:rgb(230,230,230);fill-opacity:0.6;"/>
            </g>
            <g transform="matrix(1,0,0,0.059574,0,133.106383)">
                <rect x="78" y="15" width="55" height="470" style="fill:rgb(230,230,230);fill-opacity:0.6;"/>
            </g>
            <g transform="matrix(1,0,0,0.059574,0,133.106383)">
                <rect x="141" y="15" width="55" height="470" style="fill:rgb(230,230,230);fill-opacity:0.6;"/>
            </g>
            <g transform="matrix(1,0,0,0.059574,0,133.106383)">
                <rect x="204" y="15" width="55" height="470" style="fill:rgb(230,230,230);fill-opacity:0.6;"/>
            </g>
            <g transform="matrix(1.449153,0,0,0.091489,-120.330508,74.62766)">
                <rect x="141" y="15" width="55" height="470" style="fill:rgb(230,230,230);fill-opacity:0.6;"/>
            </g>
            <g transform="matrix(1.449153,0,0,0.091489,-120.330508,74.62766)">
                <rect x="204" y="15" width="55" height="470" style="fill:rgb(230,230,230);fill-opacity:0.6;"/>
            </g>
            <g transform="matrix(1,0,0,0.22766,63,51.585106)">
                <rect x="204" y="15" width="55" height="470" style="fill:rgb(230,230,230);fill-opacity:0.6;"/>
            </g>
            <g transform="matrix(1,0,0,0.161702,0,307.574468)">
                <rect x="267" y="15" width="55" height="470" style="fill:rgb(230,230,230);fill-opacity:0.6;"/>
            </g>
        </g>
        <g transform="matrix(1,0,0,1,15,-384)">
            <text x="0px" y="0px" style="font-family:'Helvetica-Bold', 'Helvetica';font-weight:700;font-size:16px;">Uммммy uммv yvuyмuиv</text>
        </g>
        <g transform="matrix(1,0,0,1,0,-429)">
            <rect x="78" y="55" width="181" height="70" style="fill:none;stroke:black;stroke-width:2px;stroke-linejoin:miter;stroke-miterlimit:4;"/>
            <g transform="matrix(1,0,0,1,83,70)">
                <text x="0px" y="0px" style="font-family:'Helvetica-Bold', 'Helvetica';font-weight:700;font-size:10px;">Uммммy uммi мму</text>
            </g>
        </g>
        <g transform="matrix(1,0,0,1,15,-249)">
            <text x="0px" y="0px" style="font-family:'Helvetica-Bold', 'Helvetica';font-weight:700;font-size:14px;">Uммммy vіммммy uммiv</text>
        </g>
        <g transform="matrix(1,0,0,1,15,-129)">
            <text x="0px" y="0px" style="font-family:'Helvetica-Bold', 'Helvetica';font-weight:700;font-size:14px;">Uммммy uммv vшмvuy vшмммy</text>
        </g>
        <g transform="matrix(1,0,0,1,15,-19)">
            <text x="0px" y="0px" style="font-family:'Helvetica-Bold', 'Helvetica';font-weight:700;font-size:14px;">Uииииy uииv uииyuиу</text>
        </g>
        <g transform="matrix(1.05,0,0,1.05,-14.725,-449)">
            <rect x="267" y="400" width="55" height="80" style="fill:none;stroke:black;stroke-width:2px;stroke-linejoin:miter;stroke-miterlimit:4;"/>
            <g transform="matrix(1,0,0,1,271,415)">
                <text x="0px" y="0px" style="font-family:'Helvetica-Bold', 'Helvetica';font-weight:700;font-size:9px;">Uиииv</text>
            </g>
            <g transform="matrix(1,0,0,1,271,425)">
                <text x="0px" y="0px" style="font-family:'Helvetica-Bold', 'Helvetica';font-weight:700;font-size:9px;">iииу</text>
            </g>
        </g>
        <g transform="matrix(1,0,0,1,-10,-379)">
            <rect x="0" y="0" width="75" height="35" style="fill:rgb(211,29,36);"/>
            <g transform="matrix(1,0,0,1,12,23)">
                <g>
                    <text x="0px" y="0px" style="font-family:'Helvetica-Bold', 'Helvetica';font-weight:700;font-size:14px;fill:white;">G</text>
                    <g transform="matrix(1,0,0,1,11.03,0)">
                        <text x="0px" y="0px" style="font-family:'Helvetica-Bold', 'Helvetica';font-weight:700;font-size:14px;fill:white;">O<tspan x="11.029px 22.059px " y="0px 0px ">OD</tspan></text>
                    </g>
                </g>
            </g>
        </g>
    </g>
</svg>
